Coordinates
version=1
nRows=26
nColumns=24
inDegrees=yes

Units are S.I. units (second, meters, Newtons, ...)
Angles are in degrees.

endheader
time	pelvis_tilt	pelvis_list	pelvis_rotation	pelvis_tx	pelvis_ty	pelvis_tz	hip_flexion_r	hip_adduction_r	hip_rotation_r	knee_angle_r	ankle_angle_r	subtalar_angle_r	mtp_angle_r	hip_flexion_l	hip_adduction_l	hip_rotation_l	knee_angle_l	ankle_angle_l	subtalar_angle_l	mtp_angle_l	lumbar_extension	lumbar_bending	lumbar_rotation
      1.39566667	     -0.62634061	      7.72411068	     -5.99755470	      0.27012888	      1.01045536	      0.28094061	     18.68736406	    -10.88372493	      0.70385580	    -71.90788177	     -6.18309747	    -13.01925065	      5.04575630	      8.12585113	     12.37801107	      2.39314934	    -10.21754366	      1.51337759	    -16.99159003	     -4.12124873	    -11.99484171	     -3.21705373	      0.30675528
      1.39983333	     -0.60979444	      7.50993766	     -5.99964107	      0.27496277	      1.01143595	      0.28066746	     19.18726802	    -10.56971137	      0.64159966	    -71.56992509	     -5.70383221	    -13.36646045	      4.85985731	      7.56379635	     12.20182847	      2.48737529	     -9.79217897	      1.57128059	    -16.93985260	     -4.20876519	    -12.01565057	     -2.90250550	     -0.05243353
      1.40400000	     -0.63085397	      7.33215489	     -5.99485406	      0.27973434	      1.01226632	      0.28036949	     19.74016982	    -10.29137146	      0.58686569	    -71.22848582	     -5.07925913	    -13.60901413	      1.87021736	      7.06809947	     12.06316825	      2.58848373	     -9.40833475	      1.64943111	    -16.92984971	     -5.59941196	    -12.02815216	     -2.62249880	     -0.30519789
      1.40816667	     -0.62048255	      7.13353846	     -6.01130611	      0.28452173	      1.01312024	      0.28012482	     20.23613800	     -9.98070699	      0.54774827	    -70.80631653	     -4.58956835	    -13.91900683	      1.85518067	      6.53544880	     11.89469046	      2.59880238	     -9.00942382	      1.67625525	    -16.81962221	     -5.60129599	    -12.07063914	     -2.33902285	     -0.47225704
      1.41233333	     -0.63360241	      6.94469199	     -6.01129991	      0.28927959	      1.01390232	      0.27985673	     20.74661250	     -9.68024800	      0.49786521	    -70.34236556	     -4.07669091	    -14.20725838	      1.83736901	      6.03849601	     11.73693570	      2.63428703	     -8.63175919	      1.71718718	    -16.73669324	     -5.60604128	    -12.10458841	     -2.05164415	     -0.64859465
      1.41650000	     -0.64727209	      6.76730289	     -6.00225506	      0.29405923	      1.01464008	      0.27959180	     21.23851978	     -9.39537039	      0.43846761	    -69.82419750	     -3.55180013	    -14.48232603	      1.82115804	      5.54540079	     11.58933776	      2.64926712	     -8.25969680	      1.75364990	    -16.66321337	     -5.61217612	    -12.10799669	     -1.80424581	     -0.80713829
      1.42066667	     -0.64898848	      6.56230670	     -5.98697888	      0.29882575	      1.01537625	      0.27931883	     21.69224700	     -9.07871762	      0.37146078	    -69.23771608	     -3.13000857	    -14.74432047	      1.77609691	      5.02873312	     11.41450535	      2.71137054	     -7.87321870	      1.82642460	    -16.56463412	     -5.62632046	    -12.14060174	     -1.48441006	     -1.10581672
      1.42483333	     -0.68434890	      6.40178596	     -5.96862245	      0.30357044	      1.01597736	      0.27904670	     22.18748866	     -8.80950842	      0.31217758	    -68.63431144	     -2.59874227	    -14.97842011	      1.75410851	      4.57433074	     11.28140365	      2.71252264	     -7.52119724	      1.85605494	    -16.48504732	     -5.63555483	    -12.12748622	     -1.25198745	     -1.23561308
      1.42900000	     -0.67527366	      6.22059469	     -5.94980827	      0.30833272	      1.01662547	      0.27878409	     22.60551853	     -8.52197296	      0.24669778	    -67.95727310	     -2.18585781	    -15.17796484	      1.69179602	      4.05592032	     11.12975927	      2.75202216	     -7.14458989	      1.93456556	    -16.37592247	     -5.65700934	    -12.16255573	     -0.95882932	     -1.53719029
      1.43316667	     -0.69947337	      6.05854463	     -5.92544103	      0.31307316	      1.01716700	      0.27853756	     23.05166046	     -8.24656805	      0.19083511	    -67.24605854	     -1.70249367	    -15.35861105	      1.64930706	      3.59494690	     10.99232316	      2.75546983	     -6.80327442	      1.97601193	    -16.28430238	     -5.67298429	    -12.16603366	     -0.74226457	     -1.70251686
      1.43733333	     -0.71206047	      5.90172375	     -5.89789972	      0.31781658	      1.01768438	      0.27827932	     23.46959587	     -7.98340210	      0.13061648	    -66.48376429	     -1.26514067	    -15.50452375	      1.59303313	      3.11718948	     10.86086547	      2.76670725	     -6.44970877	      2.03741094	    -16.17900973	     -5.69287641	    -12.17738927	     -0.49781216	     -1.91912714
      1.44150000	     -0.72395052	      5.77045097	     -5.87115596	      0.32255615	      1.01812253	      0.27801450	     23.88432973	     -7.75237598	      0.07498950	    -65.69428265	     -0.84416864	    -15.62440460	      1.51254286	      2.64352494	     10.75739310	      2.77708140	     -6.09847499	      2.10995028	    -16.05885781	     -5.72016779	    -12.19439502	     -0.25570187	     -2.16910049
      1.44566667	     -0.74165406	      5.63686249	     -5.83985220	      0.32729194	      1.01852259	      0.27777667	     24.28198494	     -7.51216633	      0.02392227	    -64.84825511	     -0.39839624	    -15.72649714	      1.46323756	      2.18949834	     10.64767502	      2.76507549	     -5.77408621	      2.15156405	    -15.96543403	     -5.73760964	    -12.19969070	     -0.07051630	     -2.31820425
      1.44983333	     -0.78608581	      5.54577940	     -5.81528369	      0.33201699	      1.01878575	      0.27753022	     24.71807750	     -7.31802574	     -0.00990701	    -63.99062686	      0.02270669	    -15.80400234	      1.42736338	      1.76157327	     10.58062781	      2.76780590	     -5.42908527	      2.20501461	    -15.86530931	     -5.74958403	    -12.18536154	      0.11042396	     -2.45686584
      1.45400000	     -0.74647420	      5.41806968	     -5.77149314	      0.33676141	      1.01918188	      0.27729318	     25.01400149	     -7.09975725	     -0.07292029	    -63.04332148	      0.38918527	    -15.83928743	      1.29532443	      1.24379325	     10.48071667	      2.77643385	     -5.10221362	      2.29743505	    -15.71711639	     -5.79046346	    -12.25254345	      0.31318511	     -2.81748186
      1.45816667	     -0.80443838	      5.32914130	     -5.74576618	      0.34150513	      1.01935318	      0.27707182	     25.42541693	     -6.90359234	     -0.09960640	    -62.08449046	      0.76879772	    -15.86938929	      1.26177650	      0.83626692	     10.41225815	      2.77263164	     -4.76940822	      2.34612168	    -15.63578390	     -5.80119502	    -12.20928246	      0.47398226	     -2.89741967
      1.46233333	     -0.80515622	      5.21570301	     -5.70117678	      0.34624757	      1.01959435	      0.27685690	     25.73392226	     -6.69519823	     -0.15237418	    -61.04906425	      1.11257086	    -15.84493407	      1.20154734	      0.37687389	     10.32083906	      2.76832729	     -4.46851931	      2.41225640	    -15.54171300	     -5.81958752	    -12.22796227	      0.64398591	     -3.09929256
      1.46650000	     -0.80991228	      5.15090440	     -5.66520734	      0.35099764	      1.01972340	      0.27662907	     26.05578194	     -6.54310067	     -0.18822600	    -60.00688327	      1.41985255	    -15.81251943	      1.10963885	     -0.08805809	     10.28268552	      2.78502696	     -4.13333532	      2.50229021	    -15.42966816	     -5.84561891	    -12.23899829	      0.78951091	     -3.36005990
      1.47066667	     -0.79521217	      5.07228028	     -5.62634808	      0.35575276	      1.01987809	      0.27643281	     26.32496497	     -6.37509186	     -0.22552883	    -58.89869029	      1.72227240	    -15.79169380	      1.01948142	     -0.56894938	     10.22791798	      2.79327105	     -3.81284130	      2.56664326	    -15.32667114	     -5.87134329	    -12.27899287	      0.92794625	     -3.55611411
      1.47483333	     -0.82425531	      5.02177431	     -5.58638857	      0.36049497	      1.01988396	      0.27624703	     26.63700214	     -6.22960646	     -0.24723453	    -57.76842648	      2.03258482	    -15.75775841	      0.96751961	     -0.98994174	     10.19819513	      2.79775572	     -3.51196238	      2.61149614	    -15.24227291	     -5.88604508	    -12.26893026	      1.02556463	     -3.69240450
      1.47900000	     -0.83747266	      4.96900033	     -5.54679405	      0.36525732	      1.01987516	      0.27606159	     26.90936891	     -6.08719567	     -0.27198491	    -56.58751517	      2.28524173	    -15.71129270	      0.91205606	     -1.43481801	     10.16722690	      2.81323643	     -3.20120773	      2.67612962	    -15.15426963	     -5.90055146	    -12.27337447	      1.13910552	     -3.86529804
      1.48316667	     -0.81066201	      4.92824216	     -5.51264221	      0.37002091	      1.01986931	      0.27589296	     27.12352287	     -5.96474126	     -0.29884548	    -55.36695464	      2.48945960	    -15.67195319	      0.81292229	     -1.93175294	     10.15209428	      2.83866828	     -2.86782251	      2.76213472	    -15.05260341	     -5.92549698	    -12.32492913	      1.24147964	     -4.12243880
      1.48733333	     -0.85118418	      4.89822880	     -5.47412507	      0.37478421	      1.01972491	      0.27574461	     27.39343969	     -5.84165703	     -0.31510436	    -54.10823244	      2.71824649	    -15.62027629	      0.76614456	     -2.34188417	     10.13918412	      2.84707965	     -2.56243294	      2.80469447	    -14.97108973	     -5.93716540	    -12.30236402	      1.31449905	     -4.24028980
      1.49150000	     -0.85200027	      4.86420285	     -5.43933310	      0.37956108	      1.01959765	      0.27560128	     27.59386527	     -5.72046866	     -0.33103747	    -52.79449826	      2.88888673	    -15.56869843	      0.71014960	     -2.79835858	     10.12615702	      2.86327155	     -2.25423418	      2.86748707	    -14.88562490	     -5.94942652	    -12.31424244	      1.40435704	     -4.41170875
      1.49566667	     -0.85554114	      4.85117298	     -5.41056270	      0.38433941	      1.01939665	      0.27547341	     27.78889327	     -5.62136845	     -0.34214346	    -51.45447366	      3.03196643	    -15.52678499	      0.64912935	     -3.25584637	     10.13441204	      2.87962771	     -1.93329651	      2.93215278	    -14.79516436	     -5.96193017	    -12.32839213	      1.46748529	     -4.59403219
      1.49983333	     -0.88169903	      4.84129858	     -5.38050622	      0.38912324	      1.01912942	      0.27535697	     27.98497662	     -5.52284001	     -0.35015609	    -50.06627269	      3.15649079	    -15.47952462	      0.59673266	     -3.68446609	     10.14280647	      2.89337223	     -1.62319121	      2.99008184	    -14.70537691	     -5.97146995	    -12.31429121	      1.52110430	     -4.74771424
